<?xml version="1.0" encoding="UTF-8"?><svg id="a" xmlns="http://www.w3.org/2000/svg" viewBox="0 0 297.09 163.94"><defs><style>.b{fill:#0071bc;}.c{fill:#29abe2;}.d{fill:#2e3192;}</style></defs><g><path class="b" d="M26.6,163.94c5.12-13.92,15.31-25.92,27.94-33.8,14.55-9.08,32.28-11.92,49.19-10.33,27.12,3.73,53.42,13.67,80.42,17.05,14.11,1.86,28.53,1.84,42.57-.25,46.87-8.26,66.98-50.65,69.87-94.51,.41,3.65,.52,7.34,.48,11.02-.62,49.1-28.71,89.71-80.3,92.59-18.64,1.44-37.44-.97-55.55-5.18-17.82-4.12-35.15-9.79-53.09-13.09-33.25-6.63-65.3,5.93-81.54,36.51h0Z"/><path class="c" d="M221.81,121.07c27.67-8.07,48.22-39.21,56.61-65.41,3-9.52,4.74-19.46,4.94-29.75,2.3,10.06,1.87,20.76-.38,30.97-5.76,27.58-30.8,62.79-61.17,64.2h0Z"/><path class="d" d="M203.04,160.93c-26.52,5.54-53.65-1.07-78.93-9.12-18.87-5.66-39.82-13.57-58.83-4.71-3.5,1.52-7.35,4.07-10.43,6.35-1.28,1.04-2.55,2.11-3.86,3.15,1.06-1.28,2.16-2.54,3.25-3.82,2.92-2.99,6.18-5.85,9.8-8,24.6-14.97,55.76,.38,80.77,7.16,10.98,3.3,22.18,5.95,33.54,7.55,8.13,1.04,16.42,1.5,24.69,1.44h0Z"/></g><g><path d="M38.59,119.08c-3.48,0-6.79-.37-9.94-1.1-3.14-.73-6.23-1.85-9.25-3.37l-4.19-2.13,5.92-6.04h.5c2.3,2.18,5.13,3.86,8.48,5.02,3.35,1.16,6.58,1.75,9.7,1.75,5.11,0,9.03-1.01,11.75-3.04,2.72-2.03,4.09-4.61,4.09-7.76,0-1.66-.49-3.04-1.46-4.14-.97-1.1-2.39-1.92-4.27-2.45-1.56-.43-3.41-.85-5.56-1.24-2.15-.4-4.19-.82-6.14-1.28-3.77-.84-6.68-2.28-8.75-4.32-2.06-2.04-3.1-4.57-3.1-7.6,0-5.11,2.17-9.36,6.5-12.76,4.33-3.4,9.93-5.09,16.79-5.09,3.74,0,7.15,.39,10.21,1.17,3.06,.78,5.69,1.7,7.9,2.75l-1.62,7.67h-.5c-1.7-1.56-4.13-2.9-7.29-4.03-3.16-1.13-6.47-1.69-9.95-1.69-4.37,0-7.85,.96-10.46,2.88-2.6,1.92-3.91,4.36-3.91,7.31,0,1.58,.47,2.98,1.4,4.18,.94,1.2,2.6,2.1,5,2.7,1.54,.36,3.58,.8,6.12,1.31,2.54,.52,4.68,1,6.41,1.46,3.41,.94,5.99,2.33,7.76,4.18,1.76,1.85,2.65,4.18,2.65,6.98,0,2.35-.58,4.69-1.73,7.02-1.15,2.33-2.76,4.32-4.82,5.98-2.21,1.78-4.79,3.17-7.76,4.18-2.96,1.01-6.46,1.51-10.49,1.51Z"/><path d="M94.95,53.6h-8.35l-14.09-21.42h-10.21l-4.93,21.42h-7.2L62.5,0h14.61c3.26,0,5.91,.21,7.95,.63,2.04,.42,3.81,1.18,5.32,2.29,1.34,.98,2.4,2.17,3.17,3.56,.77,1.39,1.15,3.13,1.15,5.22,0,4.46-1.4,8.38-4.19,11.75-2.79,3.37-6.46,5.72-10.99,7.04l15.43,23.11Zm-7.99-40.29c0-1.27-.19-2.34-.58-3.22-.38-.87-.97-1.62-1.76-2.25-.91-.74-2.03-1.26-3.35-1.55-1.32-.29-2.94-.43-4.86-.43h-8.06l-4.75,20.63h7.54c2.35,0,4.38-.22,6.11-.65,1.72-.43,3.29-1.19,4.71-2.26,1.58-1.2,2.81-2.7,3.68-4.51,.87-1.81,1.31-3.73,1.31-5.77Z"/><path d="M148.72,0l-1.4,6.05h-28.19l-3.49,15.15h28.22l-1.4,6.05h-28.21l-4.67,20.3h28.2l-1.4,6.05h-35.31L113.39,0h35.33Z"/><path d="M194.97,0l-1.4,6.05h-28.19l-3.49,15.15h28.22l-1.4,6.05h-28.21l-4.67,20.3h28.2l-1.4,6.05h-35.31L159.64,0h35.33Z"/><path d="M232.9,53.6h-41.83l1.48-6.52L234.05,6.05h-31.42l1.4-6.05h40.1l-1.44,6.16-41.86,41.4h33.48l-1.4,6.05Z"/><path d="M293.8,0l-25.66,30.09-5.44,23.51h-7.2l5.26-22.75L248.8,0h7.64l9.3,24.08L285.99,0h7.81Z"/><path d="M106.99,92.58c-2.2,1.82-4.67,3.19-7.39,4.09-2.72,.9-6,1.35-9.83,1.35h-7.8l-4.65,20.09h-7.2l12.37-53.6h14.1c3.26,0,5.96,.29,8.09,.86s3.89,1.4,5.25,2.48c1.41,1.08,2.49,2.39,3.24,3.94,.74,1.55,1.11,3.41,1.11,5.6,0,2.93-.64,5.71-1.91,8.33-1.27,2.63-3.07,4.91-5.39,6.86Zm-.33-13.97c0-1.22-.2-2.36-.61-3.42-.41-1.06-1.04-1.92-1.9-2.59-1.03-.79-2.25-1.36-3.65-1.71-1.4-.35-3.23-.52-5.48-.52h-6.65l-5.06,21.85h6.39c2.87,0,5.26-.26,7.16-.79,1.9-.53,3.55-1.37,4.94-2.52,1.63-1.37,2.84-2.9,3.64-4.61,.8-1.7,1.2-3.6,1.2-5.69Z"/><path d="M158.98,118.11h-8.35l-14.09-21.42h-10.21l-4.93,21.42h-7.2l12.33-53.6h14.61c3.26,0,5.91,.21,7.95,.63,2.04,.42,3.81,1.18,5.32,2.29,1.34,.98,2.4,2.17,3.17,3.56,.77,1.39,1.15,3.13,1.15,5.22,0,4.46-1.4,8.38-4.19,11.75-2.79,3.37-6.46,5.72-10.99,7.04l15.43,23.11Zm-7.99-40.29c0-1.27-.19-2.34-.58-3.22-.38-.87-.97-1.62-1.76-2.25-.91-.74-2.03-1.26-3.35-1.55-1.32-.29-2.94-.43-4.86-.43h-8.06l-4.75,20.63h7.54c2.35,0,4.38-.22,6.11-.65,1.72-.43,3.29-1.19,4.71-2.26,1.58-1.2,2.81-2.7,3.68-4.51,.87-1.81,1.31-3.73,1.31-5.77Z"/><path d="M184.03,118.11h-21.24l1.19-5.22h7.02l10-43.16h-7.02l1.19-5.22h21.24l-1.19,5.22h-7.02l-10,43.16h7.02l-1.19,5.22Z"/><path d="M244.96,70.55h-19.11l-10.98,47.55h-7.2l10.98-47.55h-19.12l1.37-6.05h45.43l-1.37,6.05Z"/><path d="M36.36,49.28c-2.33,1.56-4.76,2.67-7.3,3.33-2.54,.66-5.67,.99-9.39,.99H0L12.33,0h15.4c3.91,0,6.82,.13,8.72,.4,1.91,.26,3.65,.87,5.23,1.83,1.32,.82,2.31,1.85,2.97,3.11,.66,1.26,.99,2.66,.99,4.19,0,3.09-.88,5.83-2.63,8.2-1.75,2.37-4.17,4.21-7.27,5.5v.29c2.88,.65,5.08,1.86,6.6,3.64,1.52,1.78,2.28,4.06,2.28,6.84,0,3.05-.76,5.94-2.28,8.66-1.52,2.72-3.52,4.93-5.99,6.61Zm.75-14.79c0-1.34-.23-2.43-.68-3.26s-1.27-1.6-2.45-2.32c-.96-.6-2.19-1-3.69-1.19-1.5-.19-3.58-.29-6.24-.29H13.22l-4.67,20.3h9.81c3.18,0,5.78-.17,7.78-.52,2-.35,3.73-.97,5.19-1.85,1.89-1.13,3.33-2.67,4.31-4.63,.98-1.96,1.47-4.04,1.47-6.25Zm.79-22.94c0-1.01-.17-1.84-.5-2.5-.34-.66-.82-1.2-1.44-1.63-1.01-.67-2.27-1.1-3.78-1.28-1.51-.18-3.47-.27-5.87-.27h-8.13l-3.65,15.87h9.35c2.06,0,3.86-.15,5.39-.45,1.53-.3,2.88-.77,4.03-1.42,1.49-.86,2.63-2.09,3.42-3.68,.79-1.59,1.19-3.14,1.19-4.65Z"/></g></svg>