<svg id="BrezzySprit-logo" xmlns="http://www.w3.org/2000/svg" width="53.205" height="29.362" viewBox="0 0 53.205 29.362">
  <g id="Waves" transform="translate(4.762 4.64)">
    <path id="Path_1" data-name="Path 1" d="M26.592,63.921a12.237,12.237,0,0,1,5-6.053,14.169,14.169,0,0,1,8.81-1.85c4.857.668,9.567,2.448,14.4,3.054a27.52,27.52,0,0,0,7.624-.045c8.394-1.479,12-9.071,12.513-16.926a16.127,16.127,0,0,1,.086,1.974C74.92,52.867,69.889,60.14,60.65,60.656a32.935,32.935,0,0,1-9.949-.928c-3.191-.738-6.3-1.753-9.508-2.344C35.238,56.2,29.5,58.446,26.59,63.923h0Z" transform="translate(-26.59 -39.2)" fill="#0071bc"/>
    <path id="Path_2" data-name="Path 2" d="M221.81,42.953c4.956-1.445,8.636-7.022,10.138-11.714a18.893,18.893,0,0,0,.885-5.328,12.745,12.745,0,0,1-.068,5.547c-1.032,4.939-5.516,11.245-10.955,11.5h0Z" transform="translate(-186.847 -25.91)" fill="#29abe2"/>
    <path id="Path_3" data-name="Path 3" d="M78.221,142.468c-4.75.992-9.608-.192-14.136-1.633-3.38-1.014-7.132-2.43-10.536-.844a10.289,10.289,0,0,0-1.868,1.137c-.229.186-.457.378-.691.564.19-.229.387-.455.582-.684a8.775,8.775,0,0,1,1.755-1.433c4.406-2.681,9.986.068,14.465,1.282A40.564,40.564,0,0,0,73.8,142.21a33.046,33.046,0,0,0,4.422.258Z" transform="translate(-46.62 -118.287)" fill="#2e3192"/>
  </g>
  <g id="Text">
    <path id="Path_4" data-name="Path 4" d="M19.4,73.479a7.86,7.86,0,0,1-1.78-.2,7.411,7.411,0,0,1-1.657-.6l-.75-.381,1.06-1.082h.09a4.148,4.148,0,0,0,1.519.9,5.3,5.3,0,0,0,1.737.313,3.475,3.475,0,0,0,2.1-.544,1.666,1.666,0,0,0,.732-1.39,1.081,1.081,0,0,0-.261-.741,1.55,1.55,0,0,0-.765-.439c-.279-.077-.611-.152-1-.222s-.75-.147-1.1-.229a3.153,3.153,0,0,1-1.567-.774,1.839,1.839,0,0,1-.555-1.361,2.8,2.8,0,0,1,1.164-2.285,4.726,4.726,0,0,1,3.007-.912,7.413,7.413,0,0,1,1.829.21,7.8,7.8,0,0,1,1.415.493l-.29,1.374h-.09a3.827,3.827,0,0,0-1.306-.722,5.246,5.246,0,0,0-1.782-.3,3.089,3.089,0,0,0-1.873.516,1.569,1.569,0,0,0-.7,1.309,1.191,1.191,0,0,0,.251.749,1.593,1.593,0,0,0,.9.484q.414.1,1.1.235c.455.093.838.179,1.148.261a2.969,2.969,0,0,1,1.39.749,1.744,1.744,0,0,1,.475,1.25,2.819,2.819,0,0,1-.31,1.257,3.157,3.157,0,0,1-.863,1.071,4.5,4.5,0,0,1-1.39.749,5.834,5.834,0,0,1-1.879.27Z" transform="translate(-12.486 -52.152)" fill="#fff"/>
    <path id="Path_5" data-name="Path 5" d="M58.19,9.6h-1.5L54.171,5.763H52.342L51.459,9.6H50.17L52.378,0h2.617a7.3,7.3,0,0,1,1.424.113,2.4,2.4,0,0,1,.953.41,1.966,1.966,0,0,1,.568.638,1.91,1.91,0,0,1,.206.935,3.2,3.2,0,0,1-.75,2.1,3.9,3.9,0,0,1-1.968,1.261ZM56.759,2.384a1.419,1.419,0,0,0-.1-.577,1.05,1.05,0,0,0-.315-.4,1.419,1.419,0,0,0-.6-.278,4.138,4.138,0,0,0-.87-.077H53.426l-.851,3.695h1.35a4.565,4.565,0,0,0,1.094-.116,2.329,2.329,0,0,0,.844-.4,2.193,2.193,0,0,0,.659-.808,2.354,2.354,0,0,0,.235-1.033Z" transform="translate(-41.185)" fill="#fff"/>
    <path id="Path_6" data-name="Path 6" d="M109.6,0l-.251,1.084H104.3L103.679,3.8h5.054l-.251,1.084H103.43l-.836,3.636h5.05L107.394,9.6H101.07L103.276,0Z" transform="translate(-82.969)" fill="#fff"/>
    <path id="Path_7" data-name="Path 7" d="M155.854,0,155.6,1.084h-5.049L149.929,3.8h5.054l-.251,1.084H149.68l-.836,3.636h5.05L153.644,9.6H147.32L149.526,0Z" transform="translate(-120.936)" fill="#fff"/>
    <path id="Path_8" data-name="Path 8" d="M198.561,9.6H191.07l.265-1.168,7.432-7.348H193.14L193.391,0h7.182l-.258,1.1-7.5,7.414h6L198.563,9.6Z" transform="translate(-156.851)" fill="#fff"/>
    <path id="Path_9" data-name="Path 9" d="M256.859,0l-4.6,5.389-.974,4.21H250l.942-4.074L248.8,0h1.368l1.666,4.313L255.46,0Z" transform="translate(-204.242)" fill="#fff"/>
    <path id="Path_10" data-name="Path 10" d="M76.723,69.537a4.066,4.066,0,0,1-1.324.732,5.642,5.642,0,0,1-1.76.242h-1.4l-.833,3.6H70.12l2.215-9.6h2.525a5.725,5.725,0,0,1,1.449.154,2.564,2.564,0,0,1,.94.444,1.949,1.949,0,0,1,.58.706,2.308,2.308,0,0,1,.2,1,3.379,3.379,0,0,1-.342,1.492,3.689,3.689,0,0,1-.965,1.229Zm-.059-2.5a1.683,1.683,0,0,0-.109-.612,1.058,1.058,0,0,0-.34-.464,1.764,1.764,0,0,0-.654-.306,4.183,4.183,0,0,0-.981-.093H73.388l-.906,3.913h1.144a4.871,4.871,0,0,0,1.282-.141,2.367,2.367,0,0,0,.885-.451,2.416,2.416,0,0,0,.652-.826,2.366,2.366,0,0,0,.215-1.019Z" transform="translate(-57.562 -52.957)" fill="#fff"/>
    <path id="Path_11" data-name="Path 11" d="M122.22,74.109h-1.5L118.2,70.273h-1.829l-.883,3.836H114.2l2.208-9.6h2.617a7.3,7.3,0,0,1,1.424.113,2.4,2.4,0,0,1,.953.41,1.966,1.966,0,0,1,.568.638,1.91,1.91,0,0,1,.206.935,3.2,3.2,0,0,1-.75,2.1,3.9,3.9,0,0,1-1.968,1.261Zm-1.431-7.216a1.419,1.419,0,0,0-.1-.577,1.05,1.05,0,0,0-.315-.4,1.419,1.419,0,0,0-.6-.278,4.138,4.138,0,0,0-.87-.077h-1.443l-.851,3.695h1.35a4.565,4.565,0,0,0,1.094-.116,2.329,2.329,0,0,0,.844-.4,2.193,2.193,0,0,0,.659-.808,2.354,2.354,0,0,0,.235-1.033Z" transform="translate(-93.748 -52.957)" fill="#fff"/>
    <path id="Path_12" data-name="Path 12" d="M166.594,74.109h-3.8l.213-.935h1.257l1.791-7.73h-1.257l.213-.935h3.8l-.213.935h-1.257l-1.791,7.73h1.257Z" transform="translate(-133.635 -52.957)" fill="#fff"/>
    <path id="Path_13" data-name="Path 13" d="M207.666,65.584h-3.422L202.277,74.1h-1.289l1.966-8.516H199.53l.245-1.084h8.136Z" transform="translate(-163.796 -52.948)" fill="#fff"/>
    <path id="Path_14" data-name="Path 14" d="M6.512,8.826a4.271,4.271,0,0,1-1.307.6A6.8,6.8,0,0,1,3.523,9.6H0L2.208,0H4.966A12.215,12.215,0,0,1,6.528.072,2.407,2.407,0,0,1,7.465.4,1.439,1.439,0,0,1,8,.956a1.594,1.594,0,0,1,.177.75A2.41,2.41,0,0,1,7.7,3.175a3.013,3.013,0,0,1-1.3.985v.052a2.107,2.107,0,0,1,1.182.652,1.82,1.82,0,0,1,.408,1.225A3.133,3.133,0,0,1,7.583,7.64,3.434,3.434,0,0,1,6.51,8.824Zm.134-2.649a1.224,1.224,0,0,0-.122-.584,1.176,1.176,0,0,0-.439-.415,1.624,1.624,0,0,0-.661-.213,9.387,9.387,0,0,0-1.118-.052H2.368L1.531,8.548H3.288a8.392,8.392,0,0,0,1.393-.093,2.681,2.681,0,0,0,.929-.331,1.981,1.981,0,0,0,.772-.829,2.468,2.468,0,0,0,.263-1.119Zm.141-4.108a1,1,0,0,0-.09-.448.792.792,0,0,0-.258-.292A1.538,1.538,0,0,0,5.763,1.1a9.229,9.229,0,0,0-1.051-.048H3.256L2.6,3.893H4.277a5.078,5.078,0,0,0,.965-.081,2.4,2.4,0,0,0,.722-.254A1.526,1.526,0,0,0,6.576,2.9a1.867,1.867,0,0,0,.213-.833Z" fill="#fff"/>
  </g>
</svg>
